<svg width="218" height="218" viewBox="0 0 218 218" fill="none" xmlns="http://www.w3.org/2000/svg">
<rect width="217.525" height="217.525" rx="18" fill="black"/>
<path d="M132.868 48.5167C144.957 48.5167 154.758 58.3166 154.758 70.4054V132.624C154.758 132.675 154.76 132.725 154.76 132.776C154.76 132.826 154.758 132.876 154.758 132.926V134.96C154.758 136.961 154.487 138.9 153.984 140.741C150.278 159.598 133.679 173.902 113.76 173.902H103.444C83.5331 173.902 66.9391 159.611 63.2236 140.766C62.7163 138.917 62.4443 136.97 62.4443 134.96V70.4054C62.4446 58.3167 72.2443 48.517 84.333 48.5167C96.4219 48.5167 106.222 58.3166 106.223 70.4054V91.6495H110.979V70.4054C110.98 58.3167 120.779 48.517 132.868 48.5167Z" fill="white"/>
<path d="M136.365 39.4891C150.195 39.4893 161.406 50.7005 161.406 64.5302V138.381C161.406 140.676 161.095 142.899 160.517 145.011C156.266 166.625 137.217 182.93 114.356 182.93H102.846C79.9813 182.93 60.9286 166.619 56.6826 144.999C56.1063 142.891 55.7969 140.672 55.7969 138.381V64.5302C55.7969 50.7004 67.0082 39.4892 80.8379 39.4891C94.6677 39.4891 105.879 50.7004 105.879 64.5302V88.8329H111.324V64.5302C111.324 50.7004 122.535 39.4891 136.365 39.4891Z" fill="white"/>
<path d="M90.4732 133.277C90.4732 138.065 86.5918 141.947 81.8037 141.947C77.0157 141.947 73.1343 138.065 73.1343 133.277C73.1343 128.489 77.0157 124.608 81.8037 124.608C86.5918 124.608 90.4732 128.489 90.4732 133.277Z" fill="black"/>
<path d="M145.643 133.277C145.643 138.065 141.762 141.947 136.974 141.947C132.186 141.947 128.304 138.065 128.304 133.277C128.304 128.489 132.186 124.608 136.974 124.608C141.762 124.608 145.643 128.489 145.643 133.277Z" fill="black"/>
<path d="M105.785 21.8141C105.785 20.2587 107.046 18.9978 108.601 18.9978C110.157 18.9978 111.418 20.2587 111.418 21.8141V91.8423C111.418 93.3977 110.157 94.6586 108.601 94.6586C107.046 94.6586 105.785 93.3977 105.785 91.8423V21.8141Z" fill="black"/>
</svg>
